name C:\Users\u0101727\Documents\MyRepositories\upper-imu-dc\Results\main_tracking\Case_22\SHRUG01_orientations_groundFrame.mot
datacolumns 13
datarows 40
range 2.21000000 2.60000000
endheader 
time	radius_imu_[0][0]	radius_imu_[0][1]	radius_imu_[0][2]	radius_imu_[1][0]	radius_imu_[1][1]	radius_imu_[1][2]	radius_imu_[2][0]	radius_imu_[2][1]	radius_imu_[2][2]	radius_imu_x	radius_imu_y	radius_imu_z	
          2.21000000	          0.60625293	         -0.15348755	          0.78031978	         -0.17545733	          0.93120589	          0.31948444	         -0.77567526	         -0.33060120	          0.53761579	         -0.53618943	          0.89517699	          0.24796382	
          2.22000000	          0.61015079	         -0.15365168	          0.77724332	         -0.17330186	          0.93137511	          0.32016695	         -0.77309927	         -0.33004783	          0.54165114	         -0.53384552	          0.89027263	          0.24669628	
          2.23000000	          0.61234590	         -0.15421240	          0.77540379	         -0.17164742	          0.93146310	          0.32080158	         -0.77173160	         -0.32953759	          0.54390745	         -0.53289251	          0.88735429	          0.24670847	
          2.24000000	          0.61275155	         -0.15503121	          0.77491991	         -0.17058826	          0.93150427	          0.32124669	         -0.77164447	         -0.32903665	          0.54433418	         -0.53315610	          0.88658837	          0.24780797	
          2.25000000	          0.61124822	         -0.15594780	          0.77592261	         -0.17025826	          0.93153016	          0.32134666	         -0.77290862	         -0.32852981	          0.54284475	         -0.53449261	          0.88817632	          0.24980111	
          2.26000000	          0.60768768	         -0.15679304	          0.77854456	         -0.17082216	          0.93156560	          0.32094441	         -0.77558718	         -0.32802663	          0.53931721	         -0.53680430	          0.89234337	          0.25250863	
          2.27000000	          0.60192344	         -0.15740435	          0.78288699	         -0.17244944	          0.93162599	          0.31989718	         -0.77971108	         -0.32756203	          0.53362323	         -0.54003805	          0.89929261	          0.25577469	
          2.28000000	          0.59385456	         -0.15764124	          0.78897782	         -0.17527893	          0.93171623	          0.31809144	         -0.78524777	         -0.32719124	          0.52567275	         -0.54417062	          0.90914357	          0.25947016	
          2.29000000	          0.58350484	         -0.15740095	          0.79671014	         -0.17936941	          0.93183078	          0.31546476	         -0.79205348	         -0.32698064	          0.51549485	         -0.54917080	          0.92183199	          0.26347964	
          2.30000000	          0.57110016	         -0.15663082	          0.80579861	         -0.18465894	          0.93195478	          0.31202783	         -0.79984104	         -0.32699706	          0.50331624	         -0.55495521	          0.93702280	          0.26767956	
          2.31000000	          0.55713488	         -0.15533679	          0.81576419	         -0.19094156	          0.93206550	          0.30788832	         -0.80817204	         -0.32729861	          0.48962595	         -0.56134409	          0.95404921	          0.27190823	
          2.32000000	          0.54240792	         -0.15358827	          0.82595659	         -0.19786965	          0.93213343	          0.30327359	         -0.81648101	         -0.32792974	          0.47520610	         -0.56803080	          0.97189698	          0.27593662	
          2.33000000	          0.52800398	         -0.15152045	          0.83561556	         -0.20498536	          0.93212231	          0.29854480	         -0.82413154	         -0.32892180	          0.46110481	         -0.57458431	          0.98925242	          0.27945872	
          2.34000000	          0.51521016	         -0.14933376	          0.84395374	         -0.21177299	          0.93198868	          0.29419263	         -0.83048823	         -0.33029764	          0.44854518	         -0.58049896	          1.00461170	          0.28211923	
          2.35000000	          0.50538577	         -0.14728557	          0.85023067	         -0.21771530	          0.93168182	          0.29080756	         -0.83497621	         -0.33207823	          0.43879241	         -0.58528283	          1.01642333	          0.28357781	
          2.36000000	          0.49982655	         -0.14566201	          0.85378920	         -0.22233723	          0.93114620	          0.28902062	         -0.83710189	         -0.33428930	          0.43302550	         -0.58854111	          1.02322069	          0.28357149	
          2.37000000	          0.49965582	         -0.14471055	          0.85405089	         -0.22523681	          0.93032861	          0.28940810	         -0.83642838	         -0.33696814	          0.43224997	         -0.58998833	          1.02372354	          0.28190728	
          2.38000000	          0.50573461	         -0.14451172	          0.85049919	         -0.22612687	          0.92919362	          0.29234544	         -0.83252576	         -0.34016993	          0.43724739	         -0.58934277	          1.01693363	          0.27832913	
          2.39000000	          0.51851547	         -0.14478169	          0.84272176	         -0.22493233	          0.92775405	          0.29778831	         -0.82495282	         -0.34396321	          0.44848875	         -0.58614146	          1.00231915	          0.27228847	
          2.40000000	          0.53751105	         -0.14467589	          0.83075313	         -0.22203330	          0.92612641	          0.30494440	         -0.81350051	         -0.34836584	          0.46568031	         -0.57976762	          0.98045931	          0.26292774	
          2.41000000	          0.55903523	         -0.14313698	          0.81669542	         -0.21877744	          0.92461514	          0.31180647	         -0.79975999	         -0.35298534	          0.48557730	         -0.57082677	          0.95566110	          0.25065793	
          2.42000000	          0.56666393	         -0.14370161	          0.81132105	         -0.21745601	          0.92367898	          0.31548379	         -0.79473573	         -0.35519992	          0.49216678	         -0.57002932	          0.94640832	          0.24835679	
          2.43000000	          0.55911470	         -0.14489120	          0.81633160	         -0.22000105	          0.92338667	          0.31457367	         -0.79936868	         -0.35547657	          0.48440285	         -0.57595688	          0.95503093	          0.25356606	
          2.44000000	          0.54352338	         -0.14678943	          0.82645944	         -0.22427817	          0.92339833	          0.31150414	         -0.80887678	         -0.35466659	          0.46896691	         -0.58631711	          0.97278956	          0.26377719	
          2.45000000	          0.53403450	         -0.14771040	          0.83245949	         -0.22712950	          0.92335975	          0.30954639	         -0.81438280	         -0.35438455	          0.45955657	         -0.59277091	          0.98353181	          0.26984695	
          2.46000000	          0.53442786	         -0.14827853	          0.83210597	         -0.22708048	          0.92310573	          0.31033896	         -0.81413839	         -0.35480881	          0.45966226	         -0.59384969	          0.98289410	          0.27064517	
          2.47000000	          0.54621414	         -0.14818251	          0.82443438	         -0.22378786	          0.92263762	          0.31410001	         -0.80719831	         -0.35606428	          0.47079627	         -0.58834932	          0.96920208	          0.26491392	
          2.48000000	          0.56977737	         -0.14543753	          0.80882735	         -0.21812147	          0.92215074	          0.31946992	         -0.79232365	         -0.35844934	          0.49369758	         -0.57433131	          0.94215522	          0.24991676	
          2.49000000	          0.62261362	         -0.12674007	          0.77219767	         -0.21300056	          0.92208955	          0.32308145	         -0.75298276	         -0.36563345	          0.54710981	         -0.53342269	          0.88229273	          0.20081758	
          2.50000000	          0.62858964	         -0.12290671	          0.76796419	         -0.21204080	          0.92294383	          0.32126841	         -0.74827385	         -0.36478574	          0.55409170	         -0.52544229	          0.87565656	          0.19309163	
          2.51000000	          0.56086005	         -0.14564524	          0.81499906	         -0.21566146	          0.92471852	          0.31366509	         -0.79932855	         -0.35168611	          0.48722761	         -0.57198686	          0.95272757	          0.25407014	
          2.52000000	          0.53174429	         -0.14639414	          0.83415632	         -0.22076612	          0.92693395	          0.30340694	         -0.81762481	         -0.34548836	          0.46057297	         -0.58250860	          0.98660130	          0.26865372	
          2.53000000	          0.51238930	         -0.14405590	          0.84658438	         -0.22439503	          0.92911876	          0.29391359	         -0.82891742	         -0.34056750	          0.44374508	         -0.58500668	          1.00953488	          0.27407054	
          2.54000000	          0.50345604	         -0.14095701	          0.85244539	         -0.22546737	          0.93098593	          0.28710566	         -0.83408422	         -0.33674370	          0.43692928	         -0.58134935	          1.02064495	          0.27298903	
          2.55000000	          0.50470875	         -0.13821767	          0.85215313	         -0.22383040	          0.93239297	          0.28380151	         -0.83376797	         -0.33397488	          0.43964958	         -0.57321764	          1.02008619	          0.26730260	
          2.56000000	          0.51546615	         -0.13599155	          0.84605020	         -0.21981394	          0.93330561	          0.28394098	         -0.82823697	         -0.33233559	          0.45119461	         -0.56169216	          1.00853208	          0.25794514	
          2.57000000	          0.53428239	         -0.13358336	          0.83468426	         -0.21421294	          0.93380588	          0.28656480	         -0.81771336	         -0.33190670	          0.47030076	         -0.54724605	          0.98755922	          0.24500114	
          2.58000000	          0.55688606	         -0.12989565	          0.82036884	         -0.20864328	          0.93414809	          0.28954330	         -0.80395641	         -0.33240707	          0.49311219	         -0.53093621	          0.96205574	          0.22915627	
          2.59000000	          0.55879171	         -0.13155192	          0.81880762	         -0.20517176	          0.93471537	          0.29019256	         -0.80352746	         -0.33015339	          0.49532046	         -0.52996374	          0.95933086	          0.23121194	
          2.60000000	          0.54954316	         -0.13249432	          0.82489246	         -0.20559156	          0.93553747	          0.28723119	         -0.80977431	         -0.32743686	          0.48687850	         -0.53299278	          0.97001193	          0.23658390	
